<svg width="450" height="450" viewBox="0 0 450 450" fill="none" xmlns="http://www.w3.org/2000/svg">
<circle cx="225" cy="225" r="225" fill="#545BFE"/>
<mask id="mask0_90_3" style="mask-type:luminance" maskUnits="userSpaceOnUse" x="0" y="0" width="450" height="450">
<circle cx="225" cy="225" r="225" fill="white"/>
</mask>
<g mask="url(#mask0_90_3)">
<path fill-rule="evenodd" clip-rule="evenodd" d="M-29 15C-35.6274 15 -41 20.3726 -41 27C-41 33.6274 -35.6274 39 -29 39H176C182.627 39 188 33.6274 188 27C188 20.3726 182.627 15 176 15H-29ZM1 75C1 68.3726 6.37259 63 13 63H182C188.627 63 194 68.3726 194 75C194 81.6274 188.627 87 182 87H13C6.37259 87 1 81.6274 1 75ZM-13 123C-13 116.373 -7.62742 111 -1 111H118C124.627 111 130 116.373 130 123C130 129.627 124.627 135 118 135H-1C-7.62742 135 -13 129.627 -13 123ZM14 183C7.37258 183 2 188.373 2 195C2 201.627 7.37258 207 14 207H49C55.6274 207 61 201.627 61 195C61 188.373 55.6274 183 49 183H14ZM91 219C91 212.373 96.3726 207 103 207H152C158.627 207 164 212.373 164 219C164 225.627 158.627 231 152 231H103C96.3726 231 91 225.627 91 219ZM103 255C96.3726 255 91 260.373 91 267C91 273.627 96.3726 279 103 279H205C211.627 279 217 273.627 217 267C217 260.373 211.627 255 205 255H103ZM127 363C127 356.373 132.373 351 139 351H168C174.627 351 180 356.373 180 363C180 369.627 174.627 375 168 375H139C132.373 375 127 369.627 127 363ZM115 303C108.373 303 103 308.373 103 315C103 321.627 108.373 327 115 327H199C205.627 327 211 321.627 211 315C211 308.373 205.627 303 199 303H115ZM86 171C86 164.373 91.3726 159 98 159C104.627 159 110 164.373 110 171C110 177.627 104.627 183 98 183C91.3726 183 86 177.627 86 171Z" fill="#4FCDF9"/>
<path fill-rule="evenodd" clip-rule="evenodd" d="M386 39C379.373 39 374 44.3726 374 51C374 57.6274 379.373 63 386 63H410C416.627 63 422 57.6274 422 51C422 44.3726 416.627 39 410 39H386ZM449 63C442.373 63 437 68.3726 437 75C437 81.6274 442.373 87 449 87H660C666.627 87 672 81.6274 672 75C672 68.3726 666.627 63 660 63H449ZM323 99C323 92.3726 328.373 87 335 87H359C365.627 87 371 92.3726 371 99C371 105.627 365.627 111 359 111H335C328.373 111 323 105.627 323 99ZM334 135C327.373 135 322 140.373 322 147C322 153.627 327.373 159 334 159H390C396.627 159 402 153.627 402 147C402 140.373 396.627 135 390 135H334ZM448 135C441.373 135 436 140.373 436 147C436 153.627 441.373 159 448 159H462C468.627 159 474 153.627 474 147C474 140.373 468.627 135 462 135H448ZM483 123C483 116.373 488.373 111 495 111H669C675.627 111 681 116.373 681 123C681 129.627 675.627 135 669 135H495C488.373 135 483 129.627 483 123ZM382 99C382 92.3726 387.373 87 394 87H397C403.627 87 409 92.3726 409 99C409 105.627 403.627 111 397 111H394C387.373 111 382 105.627 382 99ZM480 303C473.373 303 468 308.373 468 315C468 321.627 473.373 327 480 327C486.627 327 492 321.627 492 315C492 308.373 486.627 303 480 303ZM296 195C296 188.373 301.373 183 308 183H481C487.627 183 493 188.373 493 195C493 201.627 487.627 207 481 207H308C301.373 207 296 201.627 296 195ZM342 231C335.373 231 330 236.373 330 243C330 249.627 335.373 255 342 255H471C477.627 255 483 249.627 483 243C483 236.373 477.627 231 471 231H342ZM378 291C378 284.373 383.373 279 390 279H454C460.627 279 466 284.373 466 291C466 297.627 460.627 303 454 303H390C383.373 303 378 297.627 378 291ZM394 327C387.373 327 382 332.373 382 339C382 345.627 387.373 351 394 351H430C436.627 351 442 345.627 442 339C442 332.373 436.627 327 430 327H394Z" fill="#4FCDF9"/>
<path fill-rule="evenodd" clip-rule="evenodd" d="M196 -21C196 -27.6274 201.373 -33 208 -33H270C276.627 -33 282 -27.6274 282 -21C282 -14.3726 276.627 -9 270 -9H208C201.373 -9 196 -14.3726 196 -21ZM339 123C339 116.373 344.373 111 351 111H413C419.627 111 425 116.373 425 123C425 129.627 419.627 135 413 135H351C344.373 135 339 129.627 339 123ZM318 -33C311.373 -33 306 -27.6274 306 -21C306 -14.3726 311.373 -9 318 -9H474C480.627 -9 486 -14.3726 486 -21C486 -27.6274 480.627 -33 474 -33H318ZM279 75C279 68.3726 284.373 63 291 63H367C373.627 63 379 68.3726 379 75C379 81.6274 373.627 87 367 87H291C284.373 87 279 81.6274 279 75ZM175 15C168.373 15 163 20.3726 163 27C163 33.6274 168.373 39 175 39H432C438.627 39 444 33.6274 444 27C444 20.3726 438.627 15 432 15H175ZM403 75C403 68.3726 408.373 63 415 63H435C441.627 63 447 68.3726 447 75C447 81.6274 441.627 87 435 87H415C408.373 87 403 81.6274 403 75ZM223 63C216.373 63 211 68.3726 211 75C211 81.6274 216.373 87 223 87H243C249.627 87 255 81.6274 255 75C255 68.3726 249.627 63 243 63H223Z" fill="white"/>
<path fill-rule="evenodd" clip-rule="evenodd" d="M95 279C88.3726 279 83 284.373 83 291C83 297.627 88.3726 303 95 303H213C219.627 303 225 297.627 225 291C225 284.373 219.627 279 213 279H95ZM81 375C74.3726 375 69 380.373 69 387C69 393.627 74.3726 399 81 399H157C163.627 399 169 393.627 169 387C169 380.373 163.627 375 157 375H81ZM5 339C5 332.373 10.3726 327 17 327H180C186.627 327 192 332.373 192 339C192 345.627 186.627 351 180 351H17C10.3726 351 5 345.627 5 339ZM228 327C221.373 327 216 332.373 216 339C216 345.627 221.373 351 228 351H248C254.627 351 260 345.627 260 339C260 332.373 254.627 327 248 327H228Z" fill="white"/>
<path fill-rule="evenodd" clip-rule="evenodd" d="M347 375C340.373 375 335 380.373 335 387C335 393.627 340.373 399 347 399H465C471.627 399 477 393.627 477 387C477 380.373 471.627 375 465 375H347ZM333 471C326.373 471 321 476.373 321 483C321 489.627 326.373 495 333 495H409C415.627 495 421 489.627 421 483C421 476.373 415.627 471 409 471H333ZM257 435C257 428.373 262.373 423 269 423H432C438.627 423 444 428.373 444 435C444 441.627 438.627 447 432 447H269C262.373 447 257 441.627 257 435ZM480 423C473.373 423 468 428.373 468 435C468 441.627 473.373 447 480 447H500C506.627 447 512 441.627 512 435C512 428.373 506.627 423 500 423H480Z" fill="white"/>
<rect opacity="0.0775757" x="225.484" y="-25" width="250.484" height="500" fill="black"/>
</g>
<circle cx="225" cy="225" r="225" fill="#545BFE"/>
<mask id="mask1_90_3" style="mask-type:luminance" maskUnits="userSpaceOnUse" x="0" y="0" width="450" height="450">
<circle cx="225" cy="225" r="225" fill="white"/>
</mask>
<g mask="url(#mask1_90_3)">
<path fill-rule="evenodd" clip-rule="evenodd" d="M188 27C188 20.3726 182.627 15 176 15H-29C-35.6274 15 -41 20.3726 -41 27C-41 33.6274 -35.6274 39 -29 39H19C25.6274 39 31 44.3726 31 51C31 57.6274 25.6274 63 19 63H13C6.37258 63 1 68.3726 1 75C1 81.6274 6.37258 87 13 87H9C15.6274 87 21 92.3726 21 99C21 105.627 15.6274 111 9 111H-1C-7.62742 111 -13 116.373 -13 123C-13 129.627 -7.62742 135 -1 135H118C124.627 135 130 129.627 130 123C130 116.373 124.627 111 118 111H113L113 110.99C106.605 110.728 101.5 105.46 101.5 99C101.5 92.5402 106.605 87.2725 113 87.0102L113 87H182C188.627 87 194 81.6274 194 75C194 68.3726 188.627 63 182 63H175L175 62.9898C168.605 62.7275 163.5 57.4598 163.5 51C163.5 44.5402 168.605 39.2725 175 39.0102L175 39H176C182.627 39 188 33.6274 188 27ZM98 159C104.627 159 110 164.373 110 171C110 177.627 104.627 183 98 183C91.3726 183 86 177.627 86 171C86 164.373 91.3726 159 98 159ZM61 195C61 188.373 55.6274 183 49 183H14C7.37258 183 2 188.373 2 195C2 201.627 7.37258 207 14 207H49C55.6274 207 61 201.627 61 195ZM146 339C146 345.627 140.627 351 134 351H139C132.373 351 127 356.373 127 363C127 369.627 132.373 375 139 375H168C174.627 375 180 369.627 180 363C180 356.373 174.627 351 168 351H172V350.99C165.605 350.728 160.5 345.46 160.5 339C160.5 332.54 165.605 327.272 172 327.01V327H199C205.627 327 211 321.627 211 315C211 308.373 205.627 303 199 303L199 302.99C192.605 302.728 187.5 297.46 187.5 291C187.5 284.54 192.605 279.272 199 279.01L199 279H205C211.627 279 217 273.627 217 267C217 260.373 211.627 255 205 255H154V254.99C147.605 254.727 142.5 249.46 142.5 243C142.5 236.54 147.605 231.273 154 231.01V231H152C158.627 231 164 225.627 164 219C164 212.373 158.627 207 152 207H103C96.3726 207 91 212.373 91 219C91 225.627 96.3726 231 103 231C109.627 231 115 236.373 115 243C115 249.627 109.627 255 103 255C96.3726 255 91 260.373 91 267C91 273.627 96.3726 279 103 279H113C119.627 279 125 284.373 125 291C125 297.627 119.627 303 113 303H115C108.373 303 103 308.373 103 315C103 321.627 108.373 327 115 327H134C140.627 327 146 332.373 146 339Z" fill="#4FCDF9"/>
</g>
<mask id="mask2_90_3" style="mask-type:luminance" maskUnits="userSpaceOnUse" x="0" y="0" width="450" height="450">
<circle cx="225" cy="225" r="225" fill="white"/>
</mask>
<g mask="url(#mask2_90_3)">
<path fill-rule="evenodd" clip-rule="evenodd" d="M422 51C422 44.3726 416.627 39 410 39H386C379.373 39 374 44.3726 374 51C374 57.6274 379.373 63 386 63H410C416.627 63 422 57.6274 422 51ZM660 63C666.627 63 672 68.3726 672 75C672 81.6274 666.627 87 660 87H653V87.0102C646.605 87.2725 641.5 92.5402 641.5 99C641.5 105.46 646.605 110.728 653 110.99V111H669C675.627 111 681 116.373 681 123C681 129.627 675.627 135 669 135H495C488.373 135 483 129.627 483 123C483 116.373 488.373 111 495 111H490C496.627 111 502 105.627 502 99C502 92.3726 496.627 87 490 87H449C442.373 87 437 81.6274 437 75C437 68.3726 442.373 63 449 63H660ZM390 327C396.627 327 402 321.627 402 315C402 308.373 396.627 303 390 303C383.373 303 378 297.627 378 291C378 284.373 383.373 279 390 279H387C393.627 279 399 273.627 399 267C399 260.373 393.627 255 387 255H342C335.373 255 330 249.627 330 243C330 236.373 335.373 231 342 231C348.627 231 354 225.627 354 219C354 212.373 348.627 207 342 207H308C301.373 207 296 201.627 296 195C296 188.373 301.373 183 308 183H334C340.627 183 346 177.627 346 171C346 164.373 340.627 159 334 159C327.373 159 322 153.627 322 147C322 140.373 327.373 135 334 135H390C396.627 135 402 140.373 402 147C402 153.627 396.627 159 390 159L389.999 159.01C383.604 159.273 378.5 164.54 378.5 171C378.5 177.46 383.604 182.727 389.999 182.99L390 183H481C487.627 183 493 188.373 493 195C493 201.627 487.627 207 481 207H461L461 207.01C454.605 207.273 449.5 212.54 449.5 219C449.5 225.46 454.605 230.727 461 230.99L461 231H471C477.627 231 483 236.373 483 243C483 249.627 477.627 255 471 255H456L455.999 255.01C449.604 255.273 444.5 260.54 444.5 267C444.5 273.46 449.604 278.727 455.999 278.99L456 279H454C460.627 279 466 284.373 466 291C466 297.627 460.627 303 454 303H434L434 303.01C427.605 303.272 422.5 308.54 422.5 315C422.5 321.46 427.605 326.728 434 326.99L434 327H430C436.627 327 442 332.373 442 339C442 345.627 436.627 351 430 351H394C387.373 351 382 345.627 382 339C382 332.373 387.373 327 394 327H390ZM480 303C486.627 303 492 308.373 492 315C492 321.627 486.627 327 480 327C473.373 327 468 321.627 468 315C468 308.373 473.373 303 480 303ZM474 147C474 140.373 468.627 135 462 135H448C441.373 135 436 140.373 436 147C436 153.627 441.373 159 448 159H462C468.627 159 474 153.627 474 147ZM371 99C371 92.3726 365.627 87 359 87H335C328.373 87 323 92.3726 323 99C323 105.627 328.373 111 335 111H359C365.627 111 371 105.627 371 99ZM397 87C403.627 87 409 92.3726 409 99C409 105.627 403.627 111 397 111H394C387.373 111 382 105.627 382 99C382 92.3726 387.373 87 394 87H397Z" fill="#4FCDF9"/>
</g>
<mask id="mask3_90_3" style="mask-type:luminance" maskUnits="userSpaceOnUse" x="0" y="0" width="450" height="450">
<circle cx="225" cy="225" r="225" fill="white"/>
</mask>
<g mask="url(#mask3_90_3)">
<path fill-rule="evenodd" clip-rule="evenodd" d="M307 51C307 44.3726 301.627 39 295 39H175C168.373 39 163 33.6274 163 27C163 20.3726 168.373 15 175 15H224C230.627 15 236 9.62742 236 3C236 -3.62742 230.627 -9 224 -9H208C201.373 -9 196 -14.3726 196 -21C196 -27.6274 201.373 -33 208 -33H270C276.627 -33 282 -27.6274 282 -21C282 -14.3726 276.627 -9 270 -9H272L272 -8.98979C265.605 -8.72785 260.5 -3.46005 260.5 3C260.5 9.46005 265.605 14.7279 272 14.9898L272 15H432C438.627 15 444 20.3726 444 27C444 33.6274 438.627 39 432 39H364L363.999 39.0103C357.604 39.273 352.5 44.5405 352.5 51C352.5 57.4595 357.604 62.727 363.999 62.9897L364 63H367C373.627 63 379 68.3726 379 75C379 81.6274 373.627 87 367 87H291C284.373 87 279 81.6274 279 75C279 68.3726 284.373 63 291 63H295C301.627 63 307 57.6274 307 51ZM413 111C419.627 111 425 116.373 425 123C425 129.627 419.627 135 413 135H351C344.373 135 339 129.627 339 123C339 116.373 344.373 111 351 111H413ZM447 75C447 68.3726 441.627 63 435 63H415C408.373 63 403 68.3726 403 75C403 81.6274 408.373 87 415 87H435C441.627 87 447 81.6274 447 75ZM243 63C249.627 63 255 68.3726 255 75C255 81.6274 249.627 87 243 87H223C216.373 87 211 81.6274 211 75C211 68.3726 216.373 63 223 63H243ZM486 -21C486 -27.6274 480.627 -33 474 -33H318C311.373 -33 306 -27.6274 306 -21C306 -14.3726 311.373 -9 318 -9H474C480.627 -9 486 -14.3726 486 -21Z" fill="white"/>
</g>
<mask id="mask4_90_3" style="mask-type:luminance" maskUnits="userSpaceOnUse" x="0" y="0" width="450" height="450">
<circle cx="225" cy="225" r="225" fill="white"/>
</mask>
<g mask="url(#mask4_90_3)">
<path fill-rule="evenodd" clip-rule="evenodd" d="M85 351C91.6274 351 97 356.373 97 363C97 369.627 91.6274 375 85 375H81C74.3726 375 69 380.373 69 387C69 393.627 74.3726 399 81 399H157C163.627 399 169 393.627 169 387C169 380.373 163.627 375 157 375H154L153.999 374.99C147.604 374.727 142.5 369.46 142.5 363C142.5 356.54 147.604 351.273 153.999 351.01L154 351H180C186.627 351 192 345.627 192 339C192 332.373 186.627 327 180 327H166L166 326.99C159.605 326.728 154.5 321.46 154.5 315C154.5 308.54 159.605 303.272 166 303.01L166 303H213C219.627 303 225 297.627 225 291C225 284.373 219.627 279 213 279H95C88.3726 279 83 284.373 83 291C83 297.627 88.3726 303 95 303H118C124.627 303 130 308.373 130 315C130 321.627 124.627 327 118 327H17C10.3726 327 5 332.373 5 339C5 345.627 10.3726 351 17 351H85ZM260 339C260 332.373 254.627 327 248 327H228C221.373 327 216 332.373 216 339C216 345.627 221.373 351 228 351H248C254.627 351 260 345.627 260 339Z" fill="white"/>
</g>
<mask id="mask5_90_3" style="mask-type:luminance" maskUnits="userSpaceOnUse" x="0" y="0" width="450" height="450">
<circle cx="225" cy="225" r="225" fill="white"/>
</mask>
<g mask="url(#mask5_90_3)">
<path fill-rule="evenodd" clip-rule="evenodd" d="M337 447C343.627 447 349 452.373 349 459C349 465.627 343.627 471 337 471H333C326.373 471 321 476.373 321 483C321 489.627 326.373 495 333 495H409C415.627 495 421 489.627 421 483C421 476.373 415.627 471 409 471H406L405.999 470.99C399.604 470.727 394.5 465.46 394.5 459C394.5 452.54 399.604 447.273 405.999 447.01L406 447H432C438.627 447 444 441.627 444 435C444 428.373 438.627 423 432 423H418L418 422.99C411.605 422.728 406.5 417.46 406.5 411C406.5 404.54 411.605 399.272 418 399.01L418 399H465C471.627 399 477 393.627 477 387C477 380.373 471.627 375 465 375H347C340.373 375 335 380.373 335 387C335 393.627 340.373 399 347 399H370C376.627 399 382 404.373 382 411C382 417.627 376.627 423 370 423H269C262.373 423 257 428.373 257 435C257 441.627 262.373 447 269 447H337ZM512 435C512 428.373 506.627 423 500 423H480C473.373 423 468 428.373 468 435C468 441.627 473.373 447 480 447H500C506.627 447 512 441.627 512 435Z" fill="white"/>
</g>
<mask id="mask6_90_3" style="mask-type:luminance" maskUnits="userSpaceOnUse" x="0" y="0" width="450" height="450">
<circle cx="225" cy="225" r="225" fill="white"/>
</mask>
<g mask="url(#mask6_90_3)">
<rect opacity="0.0775757" x="225.484" y="-25" width="250.484" height="500" fill="black"/>
</g>
</svg>
