<svg width="450" height="450" viewBox="0 0 450 450" fill="none" xmlns="http://www.w3.org/2000/svg">
<circle cx="225" cy="225" r="225" fill="#497EFA"/>
<mask id="mask0_0_5335" style="mask-type:luminance" maskUnits="userSpaceOnUse" x="0" y="0" width="450" height="450">
<circle cx="225" cy="225" r="225" fill="white"/>
</mask>
<g mask="url(#mask0_0_5335)">
<path fill-rule="evenodd" clip-rule="evenodd" d="M15.1772 166C21.8047 166 27.1772 171.373 27.1772 178C27.1772 184.627 21.8047 190 15.1772 190H-140.823C-147.45 190 -152.823 184.627 -152.823 178C-152.823 171.373 -147.45 166 -140.823 166H15.1772ZM235.177 166C241.805 166 247.177 171.373 247.177 178C247.177 184.627 241.805 190 235.177 190H157.177L157.178 190.01C150.782 190.272 145.677 195.54 145.677 202C145.677 208.46 150.782 213.728 157.178 213.99L157.177 214H317.177C323.805 214 329.177 219.373 329.177 226C329.177 232.627 323.805 238 317.177 238H60.1772C53.5498 238 48.1772 232.627 48.1772 226C48.1772 219.373 53.5498 214 60.1772 214H109.177C115.805 214 121.177 208.627 121.177 202C121.177 195.373 115.805 190 109.177 190H79.1772C72.5498 190 67.1772 184.627 67.1772 178C67.1772 171.373 72.5498 166 79.1772 166H235.177ZM30.1772 262C36.8047 262 42.1772 267.373 42.1772 274C42.1772 280.627 36.8047 286 30.1772 286H-42.8228C-49.4502 286 -54.8228 280.627 -54.8228 274C-54.8228 267.373 -49.4502 262 -42.8228 262H30.1772ZM317.177 262C323.805 262 329.177 267.373 329.177 274C329.177 280.627 323.805 286 317.177 286H244.177C237.55 286 232.177 280.627 232.177 274C232.177 267.373 237.55 262 244.177 262H317.177ZM581.177 274C581.177 267.373 575.805 262 569.177 262H403.177C396.55 262 391.177 267.373 391.177 274C391.177 280.627 396.55 286 403.177 286H569.177C575.805 286 581.177 280.627 581.177 274ZM391.177 190C397.805 190 403.177 195.373 403.177 202C403.177 208.627 397.805 214 391.177 214H382.177C375.55 214 370.177 219.373 370.177 226C370.177 232.627 375.55 238 382.177 238H639.177C645.805 238 651.177 232.627 651.177 226C651.177 219.373 645.805 214 639.177 214H439.177L439.178 213.99C432.782 213.728 427.677 208.46 427.677 202C427.677 195.54 432.782 190.272 439.178 190.01L439.177 190H463.177C469.805 190 475.177 184.627 475.177 178C475.177 171.373 469.805 166 463.177 166H307.177C300.55 166 295.177 171.373 295.177 178C295.177 184.627 300.55 190 307.177 190H391.177ZM689.177 178C689.177 171.373 683.805 166 677.177 166H521.177C514.55 166 509.177 171.373 509.177 178C509.177 184.627 514.55 190 521.177 190H677.177C683.805 190 689.177 184.627 689.177 178Z" fill="#356CEE"/>
</g>
<mask id="mask1_0_5335" style="mask-type:luminance" maskUnits="userSpaceOnUse" x="0" y="0" width="450" height="450">
<circle cx="225" cy="225" r="225" fill="white"/>
</mask>
<g mask="url(#mask1_0_5335)">
<path opacity="0.4" fill-rule="evenodd" clip-rule="evenodd" d="M15.1772 22C21.8047 22 27.1772 27.3726 27.1772 34C27.1772 40.6274 21.8047 46 15.1772 46H-140.823C-147.45 46 -152.823 40.6274 -152.823 34C-152.823 27.3726 -147.45 22 -140.823 22H15.1772ZM235.177 22C241.805 22 247.177 27.3726 247.177 34C247.177 40.6274 241.805 46 235.177 46H157.177L157.178 46.0102C150.782 46.2721 145.677 51.5399 145.677 58C145.677 64.4601 150.782 69.7279 157.178 69.9898L157.177 70H317.177C323.805 70 329.177 75.3726 329.177 82C329.177 88.6274 323.805 94 317.177 94H60.1772C53.5498 94 48.1772 88.6274 48.1772 82C48.1772 75.3726 53.5498 70 60.1772 70H109.177C115.805 70 121.177 64.6274 121.177 58C121.177 51.3726 115.805 46 109.177 46H79.1772C72.5498 46 67.1772 40.6274 67.1772 34C67.1772 27.3726 72.5498 22 79.1772 22H235.177ZM30.1772 118C36.8047 118 42.1772 123.373 42.1772 130C42.1772 136.627 36.8047 142 30.1772 142H-42.8228C-49.4502 142 -54.8228 136.627 -54.8228 130C-54.8228 123.373 -49.4502 118 -42.8228 118H30.1772ZM317.177 118C323.805 118 329.177 123.373 329.177 130C329.177 136.627 323.805 142 317.177 142H244.177C237.55 142 232.177 136.627 232.177 130C232.177 123.373 237.55 118 244.177 118H317.177ZM581.177 130C581.177 123.373 575.805 118 569.177 118H403.177C396.55 118 391.177 123.373 391.177 130C391.177 136.627 396.55 142 403.177 142H569.177C575.805 142 581.177 136.627 581.177 130ZM391.177 46C397.805 46 403.177 51.3726 403.177 58C403.177 64.6274 397.805 70 391.177 70H382.177C375.55 70 370.177 75.3726 370.177 82C370.177 88.6274 375.55 94 382.177 94H639.177C645.805 94 651.177 88.6274 651.177 82C651.177 75.3726 645.805 70 639.177 70H439.177L439.178 69.9898C432.782 69.7279 427.677 64.4601 427.677 58C427.677 51.5399 432.782 46.2721 439.178 46.0102L439.177 46H463.177C469.805 46 475.177 40.6274 475.177 34C475.177 27.3726 469.805 22 463.177 22H307.177C300.55 22 295.177 27.3726 295.177 34C295.177 40.6274 300.55 46 307.177 46H391.177ZM689.177 34C689.177 27.3726 683.805 22 677.177 22H521.177C514.55 22 509.177 27.3726 509.177 34C509.177 40.6274 514.55 46 521.177 46H677.177C683.805 46 689.177 40.6274 689.177 34Z" fill="#356CEE"/>
</g>
<mask id="mask2_0_5335" style="mask-type:luminance" maskUnits="userSpaceOnUse" x="0" y="0" width="450" height="450">
<circle cx="225" cy="225" r="225" fill="white"/>
</mask>
<g mask="url(#mask2_0_5335)">
<path opacity="0.4" fill-rule="evenodd" clip-rule="evenodd" d="M15.1772 334C21.8047 334 27.1772 339.373 27.1772 346C27.1772 352.627 21.8047 358 15.1772 358H-140.823C-147.45 358 -152.823 352.627 -152.823 346C-152.823 339.373 -147.45 334 -140.823 334H15.1772ZM235.177 334C241.805 334 247.177 339.373 247.177 346C247.177 352.627 241.805 358 235.177 358H157.177L157.178 358.01C150.782 358.272 145.677 363.54 145.677 370C145.677 376.46 150.782 381.728 157.178 381.99L157.177 382H317.177C323.805 382 329.177 387.373 329.177 394C329.177 400.627 323.805 406 317.177 406H60.1772C53.5498 406 48.1772 400.627 48.1772 394C48.1772 387.373 53.5498 382 60.1772 382H109.177C115.805 382 121.177 376.627 121.177 370C121.177 363.373 115.805 358 109.177 358H79.1772C72.5498 358 67.1772 352.627 67.1772 346C67.1772 339.373 72.5498 334 79.1772 334H235.177ZM30.1772 430C36.8047 430 42.1772 435.373 42.1772 442C42.1772 448.627 36.8047 454 30.1772 454H-42.8228C-49.4502 454 -54.8228 448.627 -54.8228 442C-54.8228 435.373 -49.4502 430 -42.8228 430H30.1772ZM317.177 430C323.805 430 329.177 435.373 329.177 442C329.177 448.627 323.805 454 317.177 454H244.177C237.55 454 232.177 448.627 232.177 442C232.177 435.373 237.55 430 244.177 430H317.177ZM581.177 442C581.177 435.373 575.805 430 569.177 430H403.177C396.55 430 391.177 435.373 391.177 442C391.177 448.627 396.55 454 403.177 454H569.177C575.805 454 581.177 448.627 581.177 442ZM391.177 358C397.805 358 403.177 363.373 403.177 370C403.177 376.627 397.805 382 391.177 382H382.177C375.55 382 370.177 387.373 370.177 394C370.177 400.627 375.55 406 382.177 406H639.177C645.805 406 651.177 400.627 651.177 394C651.177 387.373 645.805 382 639.177 382H439.177L439.178 381.99C432.782 381.728 427.677 376.46 427.677 370C427.677 363.54 432.782 358.272 439.178 358.01L439.177 358H463.177C469.805 358 475.177 352.627 475.177 346C475.177 339.373 469.805 334 463.177 334H307.177C300.55 334 295.177 339.373 295.177 346C295.177 352.627 300.55 358 307.177 358H391.177ZM689.177 346C689.177 339.373 683.805 334 677.177 334H521.177C514.55 334 509.177 339.373 509.177 346C509.177 352.627 514.55 358 521.177 358H677.177C683.805 358 689.177 352.627 689.177 346Z" fill="#356CEE"/>
</g>
<mask id="mask3_0_5335" style="mask-type:luminance" maskUnits="userSpaceOnUse" x="0" y="0" width="450" height="450">
<circle cx="225" cy="225" r="225" fill="white"/>
</mask>
<g mask="url(#mask3_0_5335)">
<path d="M148.177 274C148.177 267.373 142.805 262 136.177 262H117.177C110.55 262 105.177 256.627 105.177 250C105.177 243.373 110.55 238 117.177 238H196.177C202.805 238 208.177 243.373 208.177 250C208.177 256.627 202.805 262 196.177 262H193.177L193.177 262.01C186.782 262.272 181.678 267.54 181.678 274C181.678 280.46 186.782 285.728 193.177 285.99L193.177 286H196.177C202.805 286 208.177 291.373 208.177 298C208.177 304.627 202.805 310 196.177 310H135.177C128.55 310 123.177 304.627 123.177 298C123.177 291.373 128.55 286 135.177 286H136.177C142.805 286 148.177 280.627 148.177 274Z" fill="#2255CA"/>
</g>
<mask id="mask4_0_5335" style="mask-type:luminance" maskUnits="userSpaceOnUse" x="0" y="0" width="450" height="450">
<circle cx="225" cy="225" r="225" fill="white"/>
</mask>
<g mask="url(#mask4_0_5335)">
<rect opacity="0.0775757" x="225" y="11" width="215.354" height="428" fill="black"/>
</g>
</svg>
