<svg width="458" height="458" viewBox="0 0 458 458" fill="none" xmlns="http://www.w3.org/2000/svg">
<circle cx="229" cy="229" r="229" fill="#65F0D5"/>
<mask id="mask0_0_6360" style="mask-type:luminance" maskUnits="userSpaceOnUse" x="0" y="0" width="458" height="458">
<circle cx="229" cy="229" r="229" fill="white"/>
</mask>
<g mask="url(#mask0_0_6360)">
<path fill-rule="evenodd" clip-rule="evenodd" d="M445.12 -150C445.12 -143.373 439.748 -138 433.12 -138C426.493 -138 421.12 -143.373 421.12 -150V-306C421.12 -312.627 426.493 -318 433.12 -318C439.748 -318 445.12 -312.627 445.12 -306V-150ZM445.12 70C445.12 76.6274 439.748 82 433.12 82C426.493 82 421.12 76.6274 421.12 70V-8L421.11 -7.99963C420.848 -14.3953 415.58 -19.5 409.12 -19.5C402.66 -19.5 397.392 -14.3953 397.13 -7.99963L397.12 -8V152C397.12 158.627 391.748 164 385.12 164C378.493 164 373.12 158.627 373.12 152V-105C373.12 -111.627 378.493 -117 385.12 -117C391.748 -117 397.12 -111.627 397.12 -105V-56C397.12 -49.3726 402.493 -44 409.12 -44C415.748 -44 421.12 -49.3726 421.12 -56V-86C421.12 -92.6274 426.493 -98 433.12 -98C439.748 -98 445.12 -92.6274 445.12 -86V70ZM349.12 -135C349.12 -128.373 343.748 -123 337.12 -123C330.493 -123 325.12 -128.373 325.12 -135V-208C325.12 -214.627 330.493 -220 337.12 -220C343.748 -220 349.12 -214.627 349.12 -208V-135ZM349.12 152C349.12 158.627 343.748 164 337.12 164C330.493 164 325.12 158.627 325.12 152V79C325.12 72.3726 330.493 67 337.12 67C343.748 67 349.12 72.3726 349.12 79V152ZM337.12 416C343.748 416 349.12 410.627 349.12 404L349.12 238C349.12 231.373 343.748 226 337.12 226C330.493 226 325.12 231.373 325.12 238L325.12 404C325.12 410.627 330.493 416 337.12 416ZM421.12 226C421.12 232.627 415.748 238 409.12 238C402.493 238 397.12 232.627 397.12 226V217C397.12 210.373 391.748 205 385.12 205C378.493 205 373.12 210.373 373.12 217L373.12 474C373.12 480.627 378.493 486 385.12 486C391.748 486 397.12 480.627 397.12 474V274L397.13 274C397.392 267.605 402.66 262.5 409.12 262.5C415.58 262.5 420.848 267.605 421.11 274L421.12 274V298C421.12 304.627 426.493 310 433.12 310C439.748 310 445.12 304.627 445.12 298L445.12 142C445.12 135.373 439.748 130 433.12 130C426.493 130 421.12 135.373 421.12 142L421.12 226ZM433.12 524C439.748 524 445.12 518.627 445.12 512V356C445.12 349.373 439.748 344 433.12 344C426.493 344 421.12 349.373 421.12 356V512C421.12 518.627 426.493 524 433.12 524Z" fill="#49CBC2"/>
</g>
<mask id="mask1_0_6360" style="mask-type:luminance" maskUnits="userSpaceOnUse" x="0" y="0" width="458" height="458">
<circle cx="229" cy="229" r="229" fill="white"/>
</mask>
<g mask="url(#mask1_0_6360)">
<path fill-rule="evenodd" clip-rule="evenodd" d="M181.12 -220C181.12 -213.373 186.493 -208 193.12 -208C199.748 -208 205.12 -213.373 205.12 -220V-376C205.12 -382.627 199.748 -388 193.12 -388C186.493 -388 181.12 -382.627 181.12 -376V-220ZM181.12 0C181.12 6.62741 186.493 12 193.12 12C199.748 12 205.12 6.62741 205.12 0V-78L205.13 -77.9996C205.392 -84.3953 210.66 -89.5 217.12 -89.5C223.58 -89.5 228.848 -84.3953 229.11 -77.9996L229.12 -78V82C229.12 88.6274 234.493 94 241.12 94C247.748 94 253.12 88.6274 253.12 82L253.12 -175C253.12 -181.627 247.748 -187 241.12 -187C234.493 -187 229.12 -181.627 229.12 -175V-126C229.12 -119.373 223.748 -114 217.12 -114C210.493 -114 205.12 -119.373 205.12 -126L205.12 -156C205.12 -162.627 199.748 -168 193.12 -168C186.493 -168 181.12 -162.627 181.12 -156L181.12 0ZM277.12 -205C277.12 -198.373 282.493 -193 289.12 -193C295.748 -193 301.12 -198.373 301.12 -205V-278C301.12 -284.627 295.748 -290 289.12 -290C282.493 -290 277.12 -284.627 277.12 -278V-205ZM277.12 82C277.12 88.6274 282.493 94 289.12 94C295.748 94 301.12 88.6274 301.12 82V9C301.12 2.37259 295.748 -3 289.12 -3C282.493 -3 277.12 2.37259 277.12 9V82ZM289.12 346C282.493 346 277.12 340.627 277.12 334L277.12 168C277.12 161.373 282.493 156 289.12 156C295.748 156 301.12 161.373 301.12 168L301.12 334C301.12 340.627 295.748 346 289.12 346ZM205.12 156C205.12 162.627 210.493 168 217.12 168C223.748 168 229.12 162.627 229.12 156V147C229.12 140.373 234.493 135 241.12 135C247.748 135 253.12 140.373 253.12 147L253.12 404C253.12 410.627 247.748 416 241.12 416C234.493 416 229.12 410.627 229.12 404L229.12 204L229.11 204C228.848 197.605 223.58 192.5 217.12 192.5C210.66 192.5 205.392 197.605 205.13 204L205.12 204V228C205.12 234.627 199.748 240 193.12 240C186.493 240 181.12 234.627 181.12 228V72C181.12 65.3726 186.493 60 193.12 60C199.748 60 205.12 65.3726 205.12 72V156ZM193.12 454C186.493 454 181.12 448.627 181.12 442L181.12 286C181.12 279.373 186.493 274 193.12 274C199.748 274 205.12 279.373 205.12 286V442C205.12 448.627 199.748 454 193.12 454Z" fill="#50DECD"/>
</g>
<mask id="mask2_0_6360" style="mask-type:luminance" maskUnits="userSpaceOnUse" x="0" y="0" width="458" height="458">
<circle cx="229" cy="229" r="229" fill="white"/>
</mask>
<g mask="url(#mask2_0_6360)">
<path fill-rule="evenodd" clip-rule="evenodd" d="M157.12 -253C157.12 -246.373 151.748 -241 145.12 -241C138.493 -241 133.12 -246.373 133.12 -253V-409C133.12 -415.627 138.493 -421 145.12 -421C151.748 -421 157.12 -415.627 157.12 -409V-253ZM157.12 -33C157.12 -26.3726 151.748 -21 145.12 -21C138.493 -21 133.12 -26.3726 133.12 -33V-111L133.11 -111C132.848 -117.395 127.58 -122.5 121.12 -122.5C114.66 -122.5 109.392 -117.395 109.13 -111L109.12 -111V49C109.12 55.6274 103.748 61 97.1201 61C90.4927 61 85.1201 55.6274 85.1201 49L85.1201 -208C85.1201 -214.627 90.4927 -220 97.1201 -220C103.748 -220 109.12 -214.627 109.12 -208V-159C109.12 -152.373 114.493 -147 121.12 -147C127.748 -147 133.12 -152.373 133.12 -159L133.12 -189C133.12 -195.627 138.493 -201 145.12 -201C151.748 -201 157.12 -195.627 157.12 -189L157.12 -33ZM61.1201 -238C61.1201 -231.373 55.7475 -226 49.1201 -226C42.4927 -226 37.1201 -231.373 37.1201 -238L37.1201 -311C37.1201 -317.627 42.4927 -323 49.1201 -323C55.7475 -323 61.1201 -317.627 61.1201 -311L61.1201 -238ZM61.1201 49C61.1201 55.6274 55.7475 61 49.1201 61C42.4927 61 37.1201 55.6274 37.1201 49V-24C37.1201 -30.6274 42.4927 -36 49.1201 -36C55.7475 -36 61.1201 -30.6274 61.1201 -24V49ZM49.1201 313C55.7475 313 61.1201 307.627 61.1201 301L61.1201 135C61.1201 128.373 55.7475 123 49.1201 123C42.4927 123 37.1201 128.373 37.1201 135L37.1201 301C37.1201 307.627 42.4927 313 49.1201 313ZM133.12 123C133.12 129.627 127.748 135 121.12 135C114.493 135 109.12 129.627 109.12 123V114C109.12 107.373 103.748 102 97.1201 102C90.4927 102 85.1201 107.373 85.1201 114L85.1201 371C85.1201 377.627 90.4927 383 97.1201 383C103.748 383 109.12 377.627 109.12 371L109.12 171L109.13 171C109.392 164.605 114.66 159.5 121.12 159.5C127.58 159.5 132.848 164.605 133.11 171L133.12 171V195C133.12 201.627 138.493 207 145.12 207C151.748 207 157.12 201.627 157.12 195V39C157.12 32.3726 151.748 27 145.12 27C138.493 27 133.12 32.3726 133.12 39V123ZM145.12 421C151.748 421 157.12 415.627 157.12 409L157.12 253C157.12 246.373 151.748 241 145.12 241C138.493 241 133.12 246.373 133.12 253V409C133.12 415.627 138.493 421 145.12 421Z" fill="#77FFF5"/>
</g>
<mask id="mask3_0_6360" style="mask-type:luminance" maskUnits="userSpaceOnUse" x="0" y="0" width="458" height="458">
<circle cx="229" cy="229" r="229" fill="white"/>
</mask>
<g mask="url(#mask3_0_6360)">
<rect opacity="0.0775757" x="229" width="229" height="458" fill="black"/>
</g>
</svg>
